<?xml version="1.0" standalone="no"?>
<!DOCTYPE svg PUBLIC "-//W3C//DTD SVG 20010904//EN"
 "http://www.w3.org/TR/2001/REC-SVG-20010904/DTD/svg10.dtd">
<svg version="1.0" xmlns="http://www.w3.org/2000/svg"
 width="200.000000pt" height="200.000000pt" viewBox="0 0 200.000000 200.000000"
 preserveAspectRatio="xMidYMid meet">
<metadata>
Created by potrace 1.10, written by Peter Selinger 2001-2011
</metadata>
<g transform="translate(0.000000,200.000000) scale(0.100000,-0.100000)"
fill="#000000" stroke="none">
<path d="M220 1240 l0 -540 783 0 782 0 0 540 0 540 -782 0 -783 0 0 -540z
m1511 0 l0 -495 -725 0 c-398 0 -728 4 -733 8 -10 10 -17 826 -8 914 l6 62 42
4 c23 2 352 3 730 3 l688 -1 0 -495z"/>
<path d="M395 1667 c-19 -15 -20 -29 -23 -420 l-3 -405 28 -22 c26 -21 35 -22
153 -17 111 4 132 8 179 32 136 69 231 235 231 405 0 171 -93 334 -231 406
-50 26 -65 29 -184 32 -104 3 -134 0 -150 -11z m310 -54 c61 -32 128 -95 158
-150 119 -219 41 -503 -163 -596 -35 -16 -72 -22 -170 -25 l-125 -4 0 402 0
402 130 -4 c107 -3 137 -8 170 -25z"/>
<path d="M1330 1666 c-98 -26 -180 -103 -237 -222 -62 -129 -66 -247 -14 -384
43 -114 162 -228 261 -249 64 -14 235 -14 260 -1 35 19 40 74 40 430 0 356 -5
411 -40 430 -26 14 -215 11 -270 -4z m270 -427 l0 -401 -127 4 c-114 4 -134 7
-178 30 -49 26 -117 90 -147 138 -60 99 -79 251 -45 361 36 120 137 229 236
255 26 7 94 13 154 13 l107 1 0 -401z"/>
<path d="M220 356 c0 -91 3 -166 8 -168 4 -2 60 -1 124 2 157 7 161 11 166
153 l4 104 -32 36 -32 37 -119 0 -119 0 0 -164z m207 92 c19 -18 23 -32 23
-84 0 -107 -8 -117 -107 -127 l-43 -5 0 119 0 119 52 0 c39 0 57 -5 75 -22z"/>
<path d="M630 508 c-48 -18 -63 -65 -58 -181 4 -79 7 -90 31 -115 26 -26 33
-27 121 -27 86 0 97 2 120 24 25 24 26 29 26 141 0 111 -1 118 -25 140 -21 19
-38 24 -102 27 -46 2 -92 -2 -113 -9z m154 -54 c22 -22 22 -170 0 -202 -19
-27 -93 -31 -118 -6 -24 24 -23 199 2 213 27 16 98 13 116 -5z"/>
<path d="M930 352 l0 -168 98 4 c116 4 122 6 122 32 0 18 -6 20 -70 20 l-70 0
0 140 0 140 -40 0 -40 0 0 -168z"/>
<path d="M1190 354 l0 -169 78 3 c127 4 160 11 177 35 30 43 15 100 -32 125
l-22 12 25 25 c29 29 32 73 6 105 -17 21 -30 24 -125 28 l-107 5 0 -169z m185
83 c8 -24 6 -31 -10 -43 -10 -8 -29 -14 -42 -14 -16 0 -23 -6 -23 -20 0 -16 7
-20 33 -20 38 0 57 -15 57 -45 0 -39 -23 -57 -78 -63 l-52 -5 0 122 0 122 52
-3 c48 -3 54 -6 63 -31z"/>
<path d="M1470 517 c0 -1 25 -51 55 -110 49 -95 55 -115 55 -167 l0 -60 40 0
40 0 0 58 c0 59 30 134 95 240 l27 43 -39 -3 c-36 -3 -40 -7 -80 -77 l-41 -73
-22 43 c-39 78 -68 109 -101 109 -16 0 -29 -1 -29 -3z"/>
<path d="M1720 235 c-26 -31 18 -71 47 -42 19 19 8 57 -16 57 -10 0 -24 -7
-31 -15z"/>
</g>
</svg>
